<?xml version="1.0" encoding="utf-8"?>
<!-- Generator: Adobe Illustrator 28.0.0, SVG Export Plug-In . SVG Version: 6.00 Build 0)  -->
<svg version="1.1" id="Layer_1" xmlns="http://www.w3.org/2000/svg" xmlns:xlink="http://www.w3.org/1999/xlink" x="0px" y="0px"
	 viewBox="0 0 512 512" style="enable-background:new 0 0 512 512;" xml:space="preserve">
<style type="text/css">
	.st0{fill:#002858;}
	.st1{fill:#F0028D;}
</style>
<g>
	<circle class="st0" cx="256" cy="256" r="255"/>
	<path class="st1" d="M200.19,7.14l-1.01,5.17h-18.49c-7.85,2.42-15.53,5.22-23.04,8.36h1.97l-4.07,12.54H131.9
		c-7.13,3.98-14.05,8.29-20.73,12.91l-4.58,10.07h-9.01c-3.4,2.7-6.73,5.49-9.99,8.36h15.96L95.47,82.3H69.33
		c-2.54,2.73-5.03,5.52-7.45,8.36h30.05l-8.55,18.8H47.3c-1.93,2.75-3.81,5.53-5.64,8.36h37.23l-9.02,19.85H30.08
		c-1.45,2.76-2.86,5.54-4.2,8.36H66.4l-9.97,21.94H16.61c-0.89,2.42-1.74,4.86-2.56,7.31h39.05L42.19,199.3H7.34
		c-0.63,2.77-1.2,5.56-1.74,8.36h32.06l-11.4,25.07H2.07c-0.25,2.77-0.46,5.56-0.62,8.36h21.32l-12.35,27.16H1.3
		c0.13,2.8,0.31,5.58,0.53,8.36h5.25l-4.31,9.48c0.55,4.68,1.22,9.32,2.02,13.91l10.63-23.39h62.04l-9.5,29.25H5.89
		c0.56,2.8,1.15,5.59,1.8,8.36h56.77l-9.84,30.29H16.79c1.04,2.81,2.14,5.59,3.27,8.36h32.16L41.7,385.24h-5.55
		c2.94,4.98,6.03,9.86,9.29,14.62l2.03-6.26h77.47l-6.72,34.47h-50.4c2.6,2.84,5.26,5.63,7.99,8.36h39.92l-5.6,28.73
		c2.75,1.92,5.53,3.8,8.36,5.62l6.69-34.35h81.56l-2.31,35.52h-84.08c4.65,2.93,9.4,5.73,14.25,8.36h69.66l-1.63,25.09
		c2.8,0.6,5.61,1.16,8.45,1.66l1.74-26.75h88.13l1.72,26.42c2.83-0.52,5.64-1.1,8.44-1.71l-1.6-24.7h67.88
		c4.85-2.63,9.6-5.43,14.25-8.36h-82.3l-2.31-35.52h81.56l6.49,33.31c2.82-1.84,5.61-3.72,8.35-5.67l-5.39-27.65h38.14
		c2.73-2.72,5.39-5.51,7.99-8.36h-48.63l-6.72-34.47h77.47l1.46,4.49c2.82-4.2,5.51-8.48,8.08-12.85h-3.77l-10.52-32.38h30.38
		c1.14-2.76,2.23-5.55,3.27-8.36h-36.04l-9.84-30.29h54.99c0.65-2.77,1.24-5.56,1.8-8.36h-60.3l-9.5-29.25h62.04l9.33,20.52
		c0.76-4.68,1.4-9.41,1.9-14.18l-2.89-6.35h3.47c0.22-2.77,0.4-5.56,0.53-8.36h-7.34l-12.35-27.16h19.54
		c-0.16-2.8-0.37-5.58-0.62-8.36h-22.41l-11.4-25.07h30.28c-0.54-2.8-1.11-5.59-1.74-8.36h-33.07l-10.92-24.03h37.27
		c-0.82-2.45-1.67-4.89-2.56-7.31h-38.04l-9.97-21.94h38.74c-1.35-2.82-2.76-5.6-4.2-8.36h-38.01l-9.02-19.85h35.45
		c-1.83-2.83-3.71-5.61-5.64-8.36h-34.31l-8.55-18.8h28.27c-2.42-2.84-4.91-5.63-7.45-8.36h-24.36l-8.07-17.76h14.18
		c-3.26-2.87-6.59-5.66-9.99-8.36h-7.23l-3.76-8.27c-7.49-5.31-15.28-10.22-23.33-14.71h-21.88l-4.07-12.54h0.19
		c-7.5-3.14-15.19-5.93-23.04-8.36H314.6l-0.93-4.76c-2.73-0.63-5.49-1.21-8.26-1.75l1.27,6.51h-27.99l-0.67-10.35
		c-2.59-0.22-5.19-0.41-7.8-0.56l0.71,10.91h-28.06l0.71-11c-2.61,0.13-5.21,0.29-7.8,0.49l-0.68,10.51H207.1l1.34-6.86
		C205.68,5.97,202.92,6.53,200.19,7.14z M201.76,41.56h30.94l-0.95,14.62h-32.84L201.76,41.56z M230.28,90.66l-1.22,18.8h-41.06
		l3.66-18.8H230.28z M193.21,82.3l3.46-17.76h35.24l-1.15,17.76H193.21z M224.67,175.27l-1.56,24.03h-52.68l4.68-24.03H224.67z
		 M177.02,167.96l4.27-21.94h44.96l-1.42,21.94H177.02z M223.92,314.21h65.94l1.97,30.29h-69.88L223.92,314.21z M221.78,207.66
		l-1.63,25.07h-55.48l4.88-25.07H221.78z M219.97,241.08l-1.76,27.16H157.4l5.29-27.16H219.97z M221.03,352.86h71.72l2.1,32.38
		h-75.92L221.03,352.86z M293.81,241.08h57.28l5.29,27.16h-60.81L293.81,241.08z M293.63,232.73L292,207.66h52.22l4.88,25.07H293.63
		z M290.67,199.3l-1.56-24.03h49.56l4.68,24.03H290.67z M288.95,167.96l-1.42-21.94h44.96l4.27,21.94H288.95z M288.22,276.6
		l1.9,29.25h-66.46l1.9-29.25H288.22z M226.45,268.25l1.76-27.16h57.35l1.76,27.16H226.45z M229.12,232.73l1.63-25.07h52.29
		l1.63,25.07H229.12z M227.74,117.82l-1.29,19.85h-43.18l3.87-19.85H227.74z M180.56,109.46h-40.85l6.11-18.8h38.41L180.56,109.46z
		 M178.19,117.82l-3.87,19.85h-42.98l6.44-19.85H178.19z M173.04,146.02l-4.27,21.94h-47.61l7.12-21.94H173.04z M167.55,175.27
		l-4.68,24.03H110.4l7.8-24.03H167.55z M160.47,207.66l-4.88,25.07h-55.27l8.14-25.07H160.47z M154.3,241.08L149,268.25h-60.6
		l8.82-27.16H154.3z M155.46,276.6h62.59l-1.9,29.25h-66.38L155.46,276.6z M218.02,393.6h77.74l2.24,34.47h-82.22L218.02,393.6z
		 M297.63,305.85l-1.9-29.25h62.59l5.7,29.25H297.63z M359.48,241.08h57.07l8.82,27.16h-60.6L359.48,241.08z M358.2,232.73
		l-4.88-25.07h52.02l8.14,25.07H358.2z M350.91,199.3l-4.68-24.03h49.35l7.8,24.03H350.91z M345.02,167.96l-4.27-21.94h44.76
		l7.12,21.94H345.02z M339.46,137.67l-3.87-19.85h40.4l6.44,19.85H339.46z M333.22,109.46l-3.66-18.8h38.41l6.11,18.8H333.22z
		 M330.51,137.67h-43.18l-1.29-19.85h40.61L330.51,137.67z M284.73,109.46l-1.22-18.8h38.62l3.66,18.8H284.73z M283.02,82.3
		l-1.15-17.76h35.24l3.46,17.76H283.02z M283.27,199.3h-52.75l1.56-24.03h49.63L283.27,199.3z M169.45,20.67h27.24l-2.44,12.54
		h-28.87L169.45,20.67z M162.21,41.56h30.73l-2.85,14.62h-32.63L162.21,41.56z M189.19,64.54l-3.46,17.76H148.4l5.77-17.76H189.19z
		 M122.72,41.56h30.4l-4.75,14.62h-32.3L122.72,41.56z M111.71,64.54h34.69l-5.77,17.76h-36.99L111.71,64.54z M100.05,90.66h38.06
		l-6.11,18.8H91.5L100.05,90.66z M88.5,117.82h40.07l-6.44,19.85H79.47L88.5,117.82z M75.33,146.02h44.42l-7.12,21.94H65.35
		L75.33,146.02z M61.35,175.27h49.01l-7.8,24.03H50.43L61.35,175.27z M47.4,207.66h51.69l-8.14,25.07H36.01L47.4,207.66z
		 M19.47,268.25l12.35-27.16h56.74l-8.82,27.16H19.47z M85.41,276.6h62.38l-5.7,29.25H75.92L85.41,276.6z M73.98,314.21h65.67
		l-5.9,30.29h-69.6L73.98,314.21z M50.51,385.24l10.52-32.38h71.44l-6.31,32.38H50.51z M208.15,428.07H126l6.72-34.47h77.67
		L208.15,428.07z M210.54,385.24h-75.85l6.31-32.38h71.65L210.54,385.24z M212.82,344.5h-69.81l5.9-30.29h65.87L212.82,344.5z
		 M213.77,471.95l2.31-35.52h81.63l2.31,35.52H213.77z M299,314.21h65.87l5.9,30.29h-69.81L299,314.21z M301.14,352.86h71.65
		l6.31,32.38h-75.85L301.14,352.86z M305.63,428.07l-2.24-34.47h77.67l6.72,34.47H305.63z M463.27,385.24h-75.65l-6.31-32.38h71.44
		L463.27,385.24z M449.64,344.5h-69.6l-5.9-30.29h65.67L449.64,344.5z M437.86,305.85h-66.18l-5.7-29.25h62.38L437.86,305.85z
		 M494.31,268.25h-60.26l-8.82-27.16h56.74L494.31,268.25z M477.77,232.73h-54.94l-8.14-25.07h51.69L477.77,232.73z M463.35,199.3
		h-52.13l-7.8-24.03h49.01L463.35,199.3z M438.45,146.02l9.97,21.94h-47.27l-7.12-21.94H438.45z M434.31,137.67h-42.65l-6.45-19.85
		h40.07L434.31,137.67z M413.73,90.66l8.55,18.8h-40.51l-6.11-18.8H413.73z M410.14,82.3h-36.99l-5.77-17.76h34.68L410.14,82.3z
		 M391.06,41.56l6.65,14.62h-32.3l-4.75-14.62H391.06z M359.62,64.54l5.77,17.76h-37.33l-3.46-17.76H359.62z M356.32,56.18h-32.63
		l-2.85-14.62h30.73L356.32,56.18z M344.33,20.67l4.07,12.54h-28.87l-2.44-12.54H344.33z M314.87,56.18h-32.84l-0.95-14.62h30.94
		L314.87,56.18z M307.52,20.67l2.44,12.54H280.9l-0.81-12.54H307.52z M243.14,20.67h27.51l0.81,12.54h-29.13L243.14,20.67z
		 M241.39,41.56h31.01l0.95,14.62h-32.91L241.39,41.56z M239.23,64.54h35.31l1.15,17.76h-37.62L239.23,64.54z M237.55,90.66h38.69
		l1.22,18.8h-41.13L237.55,90.66z M236.55,117.82h40.67l1.29,19.85h-43.25L236.55,117.82z M279.41,146.02l1.42,21.94h-47.88
		l1.42-21.94H279.41z M233.69,20.67l-0.81,12.54h-29.07l2.44-12.54H233.69z"/>
</g>
</svg>
